<svg xmlns="http://www.w3.org/2000/svg" width="720" height="300" viewBox="0 0 720 300" fill="none" font-family="-apple-system, BlinkMacSystemFont, 'Segoe UI', Inter, Roboto, Arial, sans-serif" role="img" aria-label="Daily burn heatmap: each cell is one day shaded by true-dollar spend intensity over 22 weeks. Amber warning marks budget-breach days; red rings mark high context-per-call (session-bloat) days. Illustrative.">
<defs><filter id="hm-sh" x="-10%" y="-10%" width="120%" height="120%"><feDropShadow dx="0" dy="10" stdDeviation="20" flood-color="#0f172a" flood-opacity="0.10"/></filter></defs>
<g filter="url(#hm-sh)"><rect x="0" y="0" width="720" height="300" rx="16" fill="#ffffff" stroke="#eef0f4"/></g>
<text x="28" y="40" font-size="17" font-weight="800" letter-spacing="-0.3" fill="#0f172a">Daily burn</text>
<text x="142" y="40" font-size="13" font-weight="600" fill="#64748b">— true $ intensity</text>
<g><rect x="628" y="22" width="64" height="22" rx="11" fill="#f7f8fa" stroke="#e7e9ee"/><text x="660" y="37" font-size="10" font-weight="700" letter-spacing="0.5" fill="#94a3b8" text-anchor="middle">illustrative</text></g>
<text x="112" y="78" font-size="10.5" font-weight="600" fill="#94a3b8">Apr</text>
<text x="212" y="78" font-size="10.5" font-weight="600" fill="#94a3b8">May</text>
<text x="437" y="78" font-size="10.5" font-weight="600" fill="#94a3b8">Jun</text>
<text x="100" y="125" font-size="10" fill="#94a3b8" text-anchor="end">Mon</text>
<text x="100" y="175" font-size="10" fill="#94a3b8" text-anchor="end">Wed</text>
<text x="100" y="225" font-size="10" fill="#94a3b8" text-anchor="end">Fri</text>
<rect x="112" y="86" width="20" height="20" rx="4" fill="#f1f5f9"/>
<rect x="112" y="111" width="20" height="20" rx="4" fill="#eef2ff"/>
<rect x="112" y="136" width="20" height="20" rx="4" fill="#c7d2fe"/>
<rect x="112" y="161" width="20" height="20" rx="4" fill="#f1f5f9"/>
<rect x="112" y="186" width="20" height="20" rx="4" fill="#f1f5f9"/>
<rect x="112" y="211" width="20" height="20" rx="4" fill="#f1f5f9"/>
<rect x="112" y="236" width="20" height="20" rx="4" fill="#f1f5f9"/>
<rect x="137" y="86" width="20" height="20" rx="4" fill="#c7d2fe"/>
<rect x="137" y="111" width="20" height="20" rx="4" fill="#eef2ff"/>
<rect x="137" y="136" width="20" height="20" rx="4" fill="#f1f5f9"/>
<rect x="137" y="161" width="20" height="20" rx="4" fill="#a5b4fc"/>
<rect x="137" y="186" width="20" height="20" rx="4" fill="#eef2ff"/>
<rect x="137" y="211" width="20" height="20" rx="4" fill="#eef2ff"/>
<rect x="137" y="236" width="20" height="20" rx="4" fill="#f1f5f9"/>
<rect x="162" y="86" width="20" height="20" rx="4" fill="#a5b4fc"/>
<rect x="162" y="111" width="20" height="20" rx="4" fill="#a5b4fc"/>
<rect x="162" y="136" width="20" height="20" rx="4" fill="#c7d2fe"/>
<rect x="162" y="161" width="20" height="20" rx="4" fill="#c7d2fe"/>
<rect x="162" y="186" width="20" height="20" rx="4" fill="#a5b4fc"/>
<rect x="162" y="211" width="20" height="20" rx="4" fill="#eef2ff"/>
<rect x="162" y="236" width="20" height="20" rx="4" fill="#f1f5f9"/>
<rect x="187" y="86" width="20" height="20" rx="4" fill="#eef2ff"/>
<rect x="187" y="111" width="20" height="20" rx="4" fill="#eef2ff"/>
<rect x="187" y="136" width="20" height="20" rx="4" fill="#eef2ff"/>
<rect x="187" y="161" width="20" height="20" rx="4" fill="#c7d2fe"/>
<rect x="187" y="186" width="20" height="20" rx="4" fill="#c7d2fe"/>
<rect x="187" y="211" width="20" height="20" rx="4" fill="#f1f5f9"/>
<rect x="187" y="236" width="20" height="20" rx="4" fill="#eef2ff"/>
<rect x="212" y="86" width="20" height="20" rx="4" fill="#eef2ff"/>
<rect x="212" y="111" width="20" height="20" rx="4" fill="#eef2ff"/>
<rect x="212" y="136" width="20" height="20" rx="4" fill="#6366f1"/>
<rect x="212" y="161" width="20" height="20" rx="4" fill="#c7d2fe"/>
<rect x="212" y="186" width="20" height="20" rx="4" fill="#a5b4fc"/>
<rect x="212" y="211" width="20" height="20" rx="4" fill="#f1f5f9"/>
<rect x="212" y="236" width="20" height="20" rx="4" fill="#eef2ff"/>
<rect x="237" y="86" width="20" height="20" rx="4" fill="#c7d2fe"/>
<rect x="237" y="111" width="20" height="20" rx="4" fill="#6366f1"/>
<rect x="237" y="136" width="20" height="20" rx="4" fill="#a5b4fc"/>
<rect x="237" y="161" width="20" height="20" rx="4" fill="#6366f1"/>
<rect x="237" y="186" width="20" height="20" rx="4" fill="#c7d2fe"/>
<rect x="237" y="211" width="20" height="20" rx="4" fill="#eef2ff"/>
<rect x="237" y="236" width="20" height="20" rx="4" fill="#eef2ff"/>
<rect x="262" y="86" width="20" height="20" rx="4" fill="#c7d2fe"/>
<rect x="262" y="111" width="20" height="20" rx="4" fill="#4338ca"/>
<rect x="262" y="136" width="20" height="20" rx="4" fill="#f1f5f9"/>
<rect x="262" y="161" width="20" height="20" rx="4" fill="#eef2ff"/>
<rect x="262" y="186" width="20" height="20" rx="4" fill="#a5b4fc"/>
<rect x="262" y="211" width="20" height="20" rx="4" fill="#f1f5f9"/>
<rect x="262" y="236" width="20" height="20" rx="4" fill="#c7d2fe"/>
<rect x="287" y="86" width="20" height="20" rx="4" fill="#4338ca"/>
<rect x="287" y="111" width="20" height="20" rx="4" fill="#eef2ff"/>
<rect x="287" y="136" width="20" height="20" rx="4" fill="#a5b4fc"/>
<rect x="287" y="161" width="20" height="20" rx="4" fill="#c7d2fe"/>
<rect x="287" y="186" width="20" height="20" rx="4" fill="#c7d2fe"/>
<rect x="287" y="211" width="20" height="20" rx="4" fill="#eef2ff"/>
<rect x="287" y="236" width="20" height="20" rx="4" fill="#c7d2fe"/>
<rect x="312" y="86" width="20" height="20" rx="4" fill="#a5b4fc"/>
<rect x="312" y="111" width="20" height="20" rx="4" fill="#4338ca"/>
<rect x="312" y="136" width="20" height="20" rx="4" fill="#c7d2fe"/>
<rect x="312" y="161" width="20" height="20" rx="4" fill="#a5b4fc"/>
<rect x="312" y="186" width="20" height="20" rx="4" fill="#6366f1"/>
<rect x="312" y="211" width="20" height="20" rx="4" fill="#eef2ff"/>
<rect x="312" y="236" width="20" height="20" rx="4" fill="#f1f5f9"/>
<rect x="337" y="86" width="20" height="20" rx="4" fill="#c7d2fe"/>
<rect x="337" y="111" width="20" height="20" rx="4" fill="#4338ca"/>
<rect x="337" y="136" width="20" height="20" rx="4" fill="#f1f5f9"/>
<rect x="337" y="161" width="20" height="20" rx="4" fill="#4338ca"/>
<rect x="337" y="186" width="20" height="20" rx="4" fill="#c7d2fe"/>
<rect x="337" y="211" width="20" height="20" rx="4" fill="#eef2ff"/>
<rect x="337" y="236" width="20" height="20" rx="4" fill="#c7d2fe"/>
<rect x="362" y="86" width="20" height="20" rx="4" fill="#a5b4fc"/>
<rect x="362" y="111" width="20" height="20" rx="4" fill="#c7d2fe"/>
<rect x="362" y="136" width="20" height="20" rx="4" fill="#a5b4fc"/>
<rect x="362" y="161" width="20" height="20" rx="4" fill="#a5b4fc"/>
<rect x="362" y="186" width="20" height="20" rx="4" fill="#c7d2fe"/>
<rect x="362" y="211" width="20" height="20" rx="4" fill="#c7d2fe"/>
<rect x="362" y="236" width="20" height="20" rx="4" fill="#eef2ff"/>
<rect x="387" y="86" width="20" height="20" rx="4" fill="#c7d2fe"/>
<rect x="387" y="111" width="20" height="20" rx="4" fill="#a5b4fc"/>
<rect x="387" y="136" width="20" height="20" rx="4" fill="#c7d2fe"/>
<rect x="387" y="161" width="20" height="20" rx="4" fill="#c7d2fe"/>
<rect x="387" y="186" width="20" height="20" rx="4" fill="#c7d2fe"/>
<rect x="387" y="211" width="20" height="20" rx="4" fill="#f1f5f9"/>
<rect x="387" y="236" width="20" height="20" rx="4" fill="#eef2ff"/>
<rect x="412" y="86" width="20" height="20" rx="4" fill="#c7d2fe"/>
<rect x="412" y="111" width="20" height="20" rx="4" fill="#4338ca"/>
<rect x="412" y="136" width="20" height="20" rx="4" fill="#a5b4fc"/>
<rect x="412" y="161" width="20" height="20" rx="4" fill="#4338ca"/>
<rect x="412" y="186" width="20" height="20" rx="4" fill="#c7d2fe"/>
<rect x="412" y="186" width="20" height="20" rx="4" fill="#4338ca"/>
<text x="422.0" y="201" font-size="12" text-anchor="middle">⚠</text>
<rect x="412" y="211" width="20" height="20" rx="4" fill="#eef2ff"/>
<rect x="412" y="236" width="20" height="20" rx="4" fill="#c7d2fe"/>
<rect x="437" y="86" width="20" height="20" rx="4" fill="#f1f5f9"/>
<rect x="437" y="111" width="20" height="20" rx="4" fill="#a5b4fc"/>
<rect x="437" y="136" width="20" height="20" rx="4" fill="#4338ca"/>
<rect x="437" y="161" width="20" height="20" rx="4" fill="#c7d2fe"/>
<rect x="437" y="186" width="20" height="20" rx="4" fill="#a5b4fc"/>
<rect x="437" y="211" width="20" height="20" rx="4" fill="#eef2ff"/>
<rect x="437" y="236" width="20" height="20" rx="4" fill="#eef2ff"/>
<rect x="462" y="86" width="20" height="20" rx="4" fill="#f1f5f9"/>
<rect x="462" y="111" width="20" height="20" rx="4" fill="#4338ca"/>
<rect x="462" y="136" width="20" height="20" rx="4" fill="#4338ca"/>
<rect x="462" y="161" width="20" height="20" rx="4" fill="#4338ca"/>
<rect x="462" y="186" width="20" height="20" rx="4" fill="#6366f1"/>
<rect x="462" y="211" width="20" height="20" rx="4" fill="#f1f5f9"/>
<rect x="462" y="236" width="20" height="20" rx="4" fill="#eef2ff"/>
<rect x="487" y="86" width="20" height="20" rx="4" fill="#a5b4fc"/>
<rect x="487" y="111" width="20" height="20" rx="4" fill="#6366f1"/>
<rect x="487" y="136" width="20" height="20" rx="4" fill="#4338ca"/>
<rect x="487" y="161" width="20" height="20" rx="4" fill="#4338ca"/>
<rect x="485.5" y="159.5" width="23" height="23" rx="5" fill="none" stroke="#dc2626" stroke-width="2"/>
<rect x="487" y="186" width="20" height="20" rx="4" fill="#a5b4fc"/>
<rect x="487" y="211" width="20" height="20" rx="4" fill="#c7d2fe"/>
<rect x="487" y="236" width="20" height="20" rx="4" fill="#c7d2fe"/>
<rect x="512" y="86" width="20" height="20" rx="4" fill="#c7d2fe"/>
<rect x="512" y="111" width="20" height="20" rx="4" fill="#4338ca"/>
<rect x="512" y="136" width="20" height="20" rx="4" fill="#a5b4fc"/>
<rect x="512" y="161" width="20" height="20" rx="4" fill="#a5b4fc"/>
<rect x="512" y="186" width="20" height="20" rx="4" fill="#4338ca"/>
<rect x="512" y="211" width="20" height="20" rx="4" fill="#f1f5f9"/>
<rect x="512" y="236" width="20" height="20" rx="4" fill="#c7d2fe"/>
<rect x="537" y="86" width="20" height="20" rx="4" fill="#4338ca"/>
<rect x="537" y="111" width="20" height="20" rx="4" fill="#6366f1"/>
<rect x="537" y="136" width="20" height="20" rx="4" fill="#4338ca"/>
<rect x="537" y="161" width="20" height="20" rx="4" fill="#a5b4fc"/>
<rect x="537" y="186" width="20" height="20" rx="4" fill="#a5b4fc"/>
<rect x="537" y="211" width="20" height="20" rx="4" fill="#c7d2fe"/>
<rect x="537" y="236" width="20" height="20" rx="4" fill="#eef2ff"/>
<rect x="562" y="86" width="20" height="20" rx="4" fill="#a5b4fc"/>
<rect x="562" y="111" width="20" height="20" rx="4" fill="#4338ca"/>
<rect x="562" y="136" width="20" height="20" rx="4" fill="#a5b4fc"/>
<rect x="562" y="136" width="20" height="20" rx="4" fill="#4338ca"/>
<text x="572.0" y="151" font-size="12" text-anchor="middle">⚠</text>
<rect x="562" y="161" width="20" height="20" rx="4" fill="#a5b4fc"/>
<rect x="562" y="186" width="20" height="20" rx="4" fill="#4338ca"/>
<rect x="562" y="211" width="20" height="20" rx="4" fill="#c7d2fe"/>
<rect x="562" y="236" width="20" height="20" rx="4" fill="#c7d2fe"/>
<rect x="587" y="86" width="20" height="20" rx="4" fill="#4338ca"/>
<rect x="587" y="111" width="20" height="20" rx="4" fill="#f1f5f9"/>
<rect x="587" y="136" width="20" height="20" rx="4" fill="#4338ca"/>
<rect x="587" y="161" width="20" height="20" rx="4" fill="#4338ca"/>
<rect x="587" y="186" width="20" height="20" rx="4" fill="#f1f5f9"/>
<rect x="587" y="211" width="20" height="20" rx="4" fill="#eef2ff"/>
<rect x="587" y="236" width="20" height="20" rx="4" fill="#eef2ff"/>
<rect x="612" y="86" width="20" height="20" rx="4" fill="#4338ca"/>
<rect x="612" y="111" width="20" height="20" rx="4" fill="#4338ca"/>
<rect x="612" y="136" width="20" height="20" rx="4" fill="#4338ca"/>
<rect x="612" y="161" width="20" height="20" rx="4" fill="#f1f5f9"/>
<rect x="612" y="186" width="20" height="20" rx="4" fill="#4338ca"/>
<rect x="612" y="211" width="20" height="20" rx="4" fill="#eef2ff"/>
<rect x="612" y="211" width="20" height="20" rx="4" fill="#4338ca"/>
<text x="622.0" y="226" font-size="12" text-anchor="middle">⚠</text>
<rect x="612" y="236" width="20" height="20" rx="4" fill="#c7d2fe"/>
<rect x="637" y="86" width="20" height="20" rx="4" fill="#4338ca"/>
<rect x="637" y="111" width="20" height="20" rx="4" fill="#f1f5f9"/>
<rect x="635.5" y="109.5" width="23" height="23" rx="5" fill="none" stroke="#dc2626" stroke-width="2"/>
<rect x="637" y="136" width="20" height="20" rx="4" fill="#a5b4fc"/>
<rect x="637" y="161" width="20" height="20" rx="4" fill="#4338ca"/>
<text x="28" y="274" font-size="11" font-weight="600" fill="#94a3b8">less</text>
<rect x="62" y="261" width="16" height="16" rx="3" fill="#eef2ff"/>
<rect x="84" y="261" width="16" height="16" rx="3" fill="#c7d2fe"/>
<rect x="106" y="261" width="16" height="16" rx="3" fill="#a5b4fc"/>
<rect x="128" y="261" width="16" height="16" rx="3" fill="#6366f1"/>
<rect x="150" y="261" width="16" height="16" rx="3" fill="#4338ca"/>
<text x="178" y="274" font-size="11" font-weight="600" fill="#94a3b8">more</text>
<text x="300" y="274" font-size="11.5" font-weight="600" fill="#92400e">⚠ budget breach</text>
<rect x="452" y="261" width="16" height="16" rx="4" fill="none" stroke="#dc2626" stroke-width="2"/>
<text x="476" y="274" font-size="11.5" font-weight="600" fill="#b91c1c">high ctx/call (bloat)</text>
</svg>